<?xml version="1.0" encoding="utf-8"?>
<!-- Generator: Adobe Illustrator 23.0.3, SVG Export Plug-In . SVG Version: 6.00 Build 0)  -->
<svg version="1.1" id="Layer_1" xmlns="http://www.w3.org/2000/svg" xmlns:xlink="http://www.w3.org/1999/xlink" x="0px" y="0px"
	 viewBox="0 0 24 24" style="enable-background:new 0 0 24 24;" xml:space="preserve">
<style type="text/css">
	.st0{fill:url(#SVGID_1_);}
	.st1{fill:url(#SVGID_2_);}
	.st2{fill:url(#SVGID_3_);}
	.st3{fill:url(#SVGID_4_);}
	.st4{fill:url(#SVGID_5_);}
	.st5{fill:url(#SVGID_6_);}
	.st6{fill:url(#SVGID_7_);}
	.st7{fill:url(#SVGID_8_);}
	.st8{fill:url(#SVGID_9_);}
	.st9{fill:url(#SVGID_10_);}
	.st10{fill:url(#SVGID_11_);}
	.st11{fill:url(#SVGID_12_);}
	.st12{fill:url(#SVGID_13_);}
	.st13{fill:url(#SVGID_14_);}
	.st14{fill:url(#SVGID_15_);}
	.st15{fill:url(#SVGID_16_);}
	.st16{fill:url(#SVGID_17_);}
	.st17{fill:url(#SVGID_18_);}
	.st18{fill:url(#SVGID_19_);}
	.st19{fill:url(#SVGID_20_);}
	.st20{fill:url(#SVGID_21_);}
	.st21{fill:url(#SVGID_22_);}
	.st22{fill:url(#SVGID_23_);}
	.st23{fill:url(#SVGID_24_);}
	.st24{fill:url(#SVGID_25_);}
	.st25{fill:url(#SVGID_26_);}
	.st26{fill:url(#SVGID_27_);}
	.st27{fill:url(#SVGID_28_);}
	.st28{fill:url(#SVGID_29_);}
	.st29{fill:url(#SVGID_30_);}
	.st30{fill:url(#SVGID_31_);}
	.st31{fill:url(#SVGID_32_);}
</style>
<linearGradient id="SVGID_1_" gradientUnits="userSpaceOnUse" x1="4.1397" y1="11.7322" x2="21.7334" y2="11.7322">
	<stop  offset="0" style="stop-color:#1245C6"/>
	<stop  offset="1" style="stop-color:#9909B7"/>
</linearGradient>
<path class="st0" d="M20.8,3.9c-0.6-0.6-1.4-1-2.3-1h-11c-0.9,0-1.7,0.3-2.3,1c-0.6,0.6-1,1.4-1,2.3v11c0,0.9,0.3,1.7,1,2.3
	c0.6,0.6,1.4,1,2.3,1h11c0.9,0,1.7-0.3,2.3-1c0.6-0.6,1-1.4,1-2.3v-11C21.7,5.3,21.4,4.5,20.8,3.9z M14.5,5.5h0.8v3.1
	c0,0.2,0,0.3,0,0.3c0,0.1,0.1,0.2,0.2,0.2c0.2,0,0.3-0.1,0.5-0.4V5.5h0.8v4.2H16h0V9.3c-0.3,0.3-0.6,0.5-0.9,0.5
	c-0.2,0-0.4-0.1-0.5-0.3c0-0.1-0.1-0.3-0.1-0.6V5.5L14.5,5.5z M11.6,6.9c0-0.4,0.1-0.8,0.2-1c0.2-0.3,0.5-0.4,0.9-0.4
	c0.4,0,0.7,0.1,0.9,0.4c0.2,0.2,0.2,0.6,0.2,1v1.5c0,0.5-0.1,0.8-0.2,1c-0.2,0.3-0.5,0.4-0.9,0.4c-0.4,0-0.7-0.1-0.9-0.4
	c-0.2-0.2-0.2-0.6-0.2-1V6.9z M9.6,4l0.6,2.2L10.8,4h0.9l-1,3.4h0v2.3H9.7V7.4C9.7,7,9.5,6.4,9.2,5.6C9,5.1,9,4.8,9,4.8L8.7,4L9.6,4
	L9.6,4z M19,17.8c-0.1,0.3-0.2,0.6-0.5,0.8c-0.2,0.2-0.5,0.4-0.9,0.4c-1,0.1-2.6,0.2-4.7,0.2c-2.1,0-3.7-0.1-4.7-0.2
	c-0.3,0-0.6-0.2-0.9-0.4c-0.2-0.2-0.4-0.5-0.5-0.8c-0.2-0.6-0.2-1.6-0.2-3c0-1.3,0.1-2.3,0.2-3c0.1-0.3,0.2-0.6,0.5-0.8
	c0.2-0.2,0.5-0.4,0.9-0.4c1-0.1,2.6-0.2,4.7-0.2c2.1,0,3.7,0.1,4.7,0.2c0.3,0,0.6,0.2,0.9,0.4c0.3,0.2,0.4,0.5,0.5,0.8
	c0.1,0.6,0.2,1.6,0.2,3C19.2,16.2,19.2,17.2,19,17.8z M7.6,12.8h0.9v4.8h0.8v-4.8h0.9v-0.8H7.6V12.8z M11.8,16.6
	c-0.2,0.2-0.3,0.4-0.5,0.4c-0.1,0-0.2-0.1-0.2-0.2c0,0,0-0.1,0-0.3v-3.1h-0.8v3.3c0,0.3,0,0.5,0.1,0.6c0.1,0.2,0.2,0.3,0.5,0.3
	c0.3,0,0.6-0.2,0.9-0.5v0.5h0.8v-4.2h-0.8V16.6L11.8,16.6z M14.7,13.3c-0.3,0-0.5,0.2-0.8,0.5v-1.8h-0.8v5.6H14v-0.4
	c0.3,0.3,0.5,0.5,0.8,0.5c0.3,0,0.5-0.2,0.6-0.5c0.1-0.2,0.1-0.4,0.1-0.8v-1.7c0-0.4,0-0.7-0.1-0.8C15.3,13.5,15,13.3,14.7,13.3z
	 M14.7,16.4c0,0.4-0.1,0.6-0.3,0.6c-0.1,0-0.3-0.1-0.4-0.2v-2.6c0.1-0.1,0.2-0.2,0.4-0.2c0.2,0,0.3,0.2,0.3,0.6V16.4z M17.5,16.4
	c0,0.1,0,0.1,0,0.2c0,0,0,0.1,0,0.1c0,0.2-0.2,0.3-0.3,0.3c-0.3,0-0.4-0.2-0.4-0.6v-0.7h1.5v-0.9c0-0.4-0.1-0.8-0.2-1
	c-0.2-0.3-0.5-0.4-0.9-0.4s-0.7,0.1-0.9,0.4c-0.2,0.2-0.2,0.5-0.2,1v1.5c0,0.5,0.1,0.8,0.2,1c0.2,0.3,0.5,0.4,0.9,0.4
	c0.4,0,0.7-0.2,0.9-0.5c0.1-0.1,0.1-0.3,0.2-0.5c0-0.1,0-0.3,0-0.5v-0.1v0h-0.8L17.5,16.4L17.5,16.4L17.5,16.4z M16.8,14.6
	c0-0.4,0.1-0.6,0.4-0.6c0.3,0,0.4,0.2,0.4,0.6V15h-0.8V14.6z M12.8,9.1c0.2,0,0.4-0.2,0.4-0.6V6.7c0-0.4-0.1-0.6-0.4-0.6
	c-0.2,0-0.4,0.2-0.4,0.6v1.8C12.4,8.9,12.5,9.1,12.8,9.1z"/>
</svg>
